<svg xmlns="http://www.w3.org/2000/svg" width="64" height="64"><g fill="none" fill-rule="evenodd"><rect width="64" height="64" fill="#F15D34" rx="7"/><g fill="#FEFEFE" fill-rule="nonzero"><path d="M42.893 16.764c1.26-1.096 3.762-1.722 6.298.15 1.933-1.819 2.884-3.16 3.718-3.9.949-.546 2.789.633 2.789 1.94-.842.976-3.704 3.258-3.704 3.258s1.453 4.652-.522 8.601c-.447-1.498-1.415-4.535-1.971-4.976-.883.702-2.943 2.408-2.943 2.408l-6.222.512s5.472-4.865 6.376-5.963c-.933-.847-2.385-1.809-3.82-2.03"/><path d="M45.006 22.463s-5.83-3.646-12.84 3.71c-8.495 8.917-12.463 10.888-12.463 10.888s-11.184 2.87-11.09 7.652c11.52 5.474 24.567 1.24 31.889-4.236 7.403-4.644 9.482-13.042 4.504-18.014"/></g></g></svg>